<svg width="280" height="280" viewBox="0 0 280 280" fill="none" xmlns="http://www.w3.org/2000/svg">
<rect x="195" y="65" width="20" height="20" rx="10" fill="#8A2BE2"/>
<path fill-rule="evenodd" clip-rule="evenodd" d="M65 85V155V175V205C65 210.523 69.4772 215 75 215C80.5228 215 85 210.523 85 205V185C85 179.477 89.4771 175 95 175H185C190.523 175 195 179.477 195 185V205C195 210.523 199.477 215 205 215C210.523 215 215 210.523 215 205V175V155V105C215 99.4772 210.523 95 205 95C199.477 95 195 99.4772 195 105V145C195 150.523 190.523 155 185 155H95C89.4772 155 85 150.523 85 145V95C85 89.4772 89.4772 85 95 85H175C180.523 85 185 80.5228 185 75C185 69.4772 180.523 65 175 65H85H75C69.4772 65 65 69.4772 65 75V85Z" fill="white"/>
<path fill-rule="evenodd" clip-rule="evenodd" d="M0 260V20V10C0 4.47715 4.47715 0 10 0H20H260H270C275.523 0 280 4.47715 280 10V20V70C280 75.5229 275.523 80 270 80C264.477 80 260 75.5228 260 70V30C260 24.4772 255.523 20 250 20H30C24.4772 20 20 24.4772 20 30V250C20 255.523 24.4772 260 30 260H250C255.523 260 260 255.523 260 250V210C260 204.477 264.477 200 270 200C275.523 200 280 204.477 280 210V240V260V270C280 275.523 275.523 280 270 280H260H20H10C4.47715 280 0 275.523 0 270V260Z" fill="white"/>
</svg>
